<?xml version="1.0" standalone="no"?>
<!DOCTYPE svg PUBLIC "-//W3C//DTD SVG 20010904//EN"
 "http://www.w3.org/TR/2001/REC-SVG-20010904/DTD/svg10.dtd">
<svg version="1.0" xmlns="http://www.w3.org/2000/svg"
 width="512.000000pt" height="512.000000pt" viewBox="0 0 512.000000 512.000000"
 preserveAspectRatio="xMidYMid meet">

<g transform="translate(0.000000,512.000000) scale(0.100000,-0.100000)"
fill="#571600" stroke="none">
<path d="M589 4288 c-55 -86 -187 -358 -242 -499 -199 -509 -304 -985 -338
-1544 -13 -219 -8 -396 16 -510 99 -478 462 -839 945 -942 117 -24 343 -24
460 0 425 90 767 388 903 787 195 572 -59 1191 -602 1465 -126 63 -253 98
-435 121 l-49 6 6 96 c9 153 66 414 188 853 32 119 59 219 59 222 0 4 -196 7
-435 7 l-436 0 -40 -62z m387 -355 c-16 -52 -68 -286 -90 -404 -65 -350 -36
-567 91 -678 53 -48 147 -81 227 -81 74 0 170 -17 256 -46 328 -109 557 -449
537 -794 -20 -339 -247 -628 -572 -726 -79 -24 -107 -28 -225 -28 -118 0 -146
4 -225 28 -257 77 -462 282 -542 541 -27 88 -28 96 -27 315 3 591 152 1253
400 1778 l53 112 61 0 c54 0 61 -2 56 -17z"/>
<path d="M3309 4288 c-55 -86 -187 -358 -242 -499 -199 -509 -304 -985 -338
-1544 -13 -219 -8 -396 16 -510 99 -478 462 -839 945 -942 117 -24 343 -24
460 0 425 90 767 388 903 787 195 572 -59 1191 -602 1465 -126 63 -253 98
-435 121 l-49 6 6 96 c9 153 66 414 188 853 32 119 59 219 59 222 0 4 -196 7
-435 7 l-436 0 -40 -62z m387 -355 c-16 -52 -68 -286 -90 -404 -65 -350 -36
-567 91 -678 53 -48 147 -81 227 -81 74 0 170 -17 256 -46 328 -109 557 -449
537 -794 -20 -339 -247 -628 -572 -726 -79 -24 -107 -28 -225 -28 -118 0 -146
4 -225 28 -257 77 -462 282 -542 541 -27 88 -28 96 -27 315 3 591 152 1253
400 1778 l53 112 61 0 c54 0 61 -2 56 -17z"/>
</g>
</svg>
